# Blender 4.0.2
# www.blender.org
mtllib carrot.mtl
o Cylinder
v 0.000000 0.044713 -0.000873
v 0.000000 -0.151759 -0.078388
v 0.000000 0.035097 -0.024826
v 0.000000 0.007190 -0.046435
v 0.000000 -0.036276 -0.063584
v 0.000000 -0.091046 -0.074595
v 0.000830 0.044713 -0.000270
v 0.074552 -0.151759 -0.024223
v 0.023611 0.035097 -0.007672
v 0.044163 0.007190 -0.014349
v 0.060472 -0.036276 -0.019649
v 0.070944 -0.091046 -0.023051
v 0.000513 0.044713 0.000706
v 0.046076 -0.151759 0.063418
v 0.014593 0.035097 0.020085
v 0.027294 0.007190 0.037567
v 0.037374 -0.036276 0.051441
v 0.043846 -0.091046 0.060348
v -0.000513 0.044713 0.000706
v -0.046076 -0.151759 0.063418
v -0.014593 0.035097 0.020085
v -0.027294 0.007190 0.037567
v -0.037374 -0.036276 0.051441
v -0.043846 -0.091046 0.060348
v -0.000830 0.044713 -0.000270
v -0.074552 -0.151759 -0.024223
v -0.023611 0.035097 -0.007672
v -0.044163 0.007190 -0.014349
v -0.060472 -0.036276 -0.019649
v -0.070944 -0.091046 -0.023051
v 0.000000 -0.789871 -0.009747
v 0.000000 -0.672372 -0.056105
v -0.000000 -0.784120 -0.024073
v 0.000000 -0.767431 -0.036996
v 0.000000 -0.741436 -0.047252
v -0.000000 -0.708681 -0.053836
v 0.053359 -0.672372 -0.017337
v 0.009270 -0.789871 -0.003012
v 0.051201 -0.708681 -0.016636
v 0.044939 -0.741436 -0.014602
v 0.035185 -0.767431 -0.011432
v 0.022894 -0.784120 -0.007439
v 0.032978 -0.672372 0.045390
v 0.005729 -0.789871 0.007886
v 0.031644 -0.708681 0.043555
v 0.027774 -0.741436 0.038227
v 0.021746 -0.767431 0.029930
v 0.014150 -0.784120 0.019475
v -0.032978 -0.672372 0.045390
v -0.005729 -0.789871 0.007886
v -0.031644 -0.708681 0.043555
v -0.027774 -0.741436 0.038227
v -0.021746 -0.767431 0.029930
v -0.014150 -0.784120 0.019475
v -0.053359 -0.672372 -0.017337
v -0.009270 -0.789871 -0.003012
v -0.051201 -0.708681 -0.016636
v -0.044939 -0.741436 -0.014602
v -0.035185 -0.767431 -0.011432
v -0.022894 -0.784120 -0.007439
vn 0.5874 -0.0346 -0.8085
vn -0.9505 -0.0346 0.3088
vn 0.9505 -0.0346 0.3088
vn -0.0000 -0.0346 0.9994
vn -0.5874 -0.0346 -0.8085
vn 0.5870 0.0505 -0.8080
vn 0.5802 0.1605 -0.7985
vn 0.5600 0.3041 -0.7707
vn 0.4981 0.5309 -0.6856
vn 0.2613 0.8958 -0.3596
vn 0.9498 0.0505 0.3086
vn 0.9387 0.1605 0.3050
vn 0.9060 0.3041 0.2944
vn 0.8060 0.5309 0.2619
vn 0.4227 0.8958 0.1374
vn -0.0000 0.0505 0.9987
vn -0.0000 0.1605 0.9870
vn -0.0000 0.3041 0.9526
vn -0.0000 0.5309 0.8474
vn -0.0000 0.8958 0.4445
vn -0.9498 0.0505 0.3086
vn -0.9387 0.1605 0.3050
vn -0.9060 0.3041 0.2944
vn -0.8060 0.5309 0.2619
vn -0.4227 0.8958 0.1374
vn -0.5870 0.0505 -0.8080
vn -0.5802 0.1605 -0.7985
vn -0.5600 0.3041 -0.7707
vn -0.4981 0.5309 -0.6856
vn -0.2613 0.8958 -0.3596
vn -0.0000 1.0000 -0.0000
vn 0.5870 -0.0505 -0.8080
vn 0.5802 -0.1605 -0.7985
vn 0.5600 -0.3041 -0.7707
vn 0.4981 -0.5309 -0.6856
vn 0.2613 -0.8958 -0.3596
vn 0.9498 -0.0505 0.3086
vn 0.9387 -0.1605 0.3050
vn 0.9060 -0.3041 0.2944
vn 0.8060 -0.5309 0.2619
vn 0.4227 -0.8958 0.1374
vn -0.0000 -0.0505 0.9987
vn -0.0000 -0.1605 0.9870
vn -0.0000 -0.3041 0.9526
vn -0.0000 -0.5309 0.8474
vn -0.0000 -0.8958 0.4445
vn -0.9498 -0.0505 0.3086
vn -0.9387 -0.1605 0.3050
vn -0.9060 -0.3041 0.2944
vn -0.8060 -0.5309 0.2619
vn -0.4227 -0.8958 0.1374
vn -0.5870 -0.0505 -0.8080
vn -0.5802 -0.1605 -0.7985
vn -0.5600 -0.3041 -0.7707
vn -0.4981 -0.5309 -0.6856
vn -0.2613 -0.8958 -0.3596
vn -0.0000 -1.0000 -0.0000
vt 1.000000 0.667117
vt 1.000000 0.799997
vt 0.800000 0.799997
vt 0.800000 0.667117
vt 0.400000 0.667117
vt 0.400000 0.799997
vt 0.200000 0.799997
vt 0.200000 0.667117
vt 0.800000 0.667117
vt 0.800000 0.799997
vt 0.600000 0.799997
vt 0.600000 0.667117
vt 0.600000 0.667117
vt 0.200000 0.667117
vt 0.200000 0.799997
vt 0.000000 0.799997
vt 0.000000 0.667117
vt 0.995160 0.861801
vt 0.804840 0.861801
vt 0.981114 1.000000
vt 0.818886 1.000000
vt 0.456700 0.339824
vt 0.271554 0.474340
vt 0.250000 0.392170
vt 0.385211 0.293933
vt 0.250000 0.326010
vt 0.322290 0.273488
vt 0.250000 0.252671
vt 0.252541 0.250825
vt 0.795160 0.861801
vt 0.604840 0.861801
vt 0.781114 1.000000
vt 0.618886 1.000000
vt 0.399301 0.081174
vt 0.470021 0.298826
vt 0.333565 0.134982
vt 0.294677 0.188507
vt 0.251570 0.247839
vt 0.595160 0.861801
vt 0.404840 0.861801
vt 0.581114 1.000000
vt 0.418886 1.000000
vt 0.135573 0.055836
vt 0.364427 0.055836
vt 0.166435 0.134982
vt 0.205322 0.188507
vt 0.248430 0.247839
vt 0.395160 0.861801
vt 0.204840 0.861801
vt 0.381114 1.000000
vt 0.218886 1.000000
vt 0.029979 0.298826
vt 0.100699 0.081174
vt 0.114789 0.293933
vt 0.177710 0.273488
vt 0.247459 0.250826
vt 0.195160 0.861801
vt 0.004840 0.861801
vt 0.181114 1.000000
vt 0.018886 1.000000
vt 0.228446 0.474340
vt 0.043300 0.339824
vt 0.804044 0.615475
vt 0.995956 0.615475
vt 0.815780 0.568888
vt 0.984220 0.568888
vt 0.834060 0.500000
vt 0.965940 0.500000
vt 0.788872 0.461758
vt 0.939382 0.352406
vt 0.847935 0.281821
vt 0.750000 0.352975
vt 0.789654 0.262884
vt 0.750000 0.291695
vt 0.604044 0.615475
vt 0.795956 0.615475
vt 0.615780 0.568888
vt 0.784220 0.568888
vt 0.634060 0.500000
vt 0.765940 0.500000
vt 0.963406 0.278468
vt 0.905916 0.101532
vt 0.810527 0.166692
vt 0.774508 0.216268
vt 0.404044 0.615475
vt 0.595956 0.615475
vt 0.415780 0.568888
vt 0.584220 0.568888
vt 0.434060 0.500000
vt 0.565940 0.500000
vt 0.843020 0.055836
vt 0.656980 0.055836
vt 0.689473 0.166692
vt 0.725492 0.216268
vt 0.204044 0.615475
vt 0.395956 0.615475
vt 0.215780 0.568888
vt 0.384220 0.568888
vt 0.234060 0.500000
vt 0.365940 0.500000
vt 0.594084 0.101532
vt 0.536594 0.278468
vt 0.652065 0.281821
vt 0.710346 0.262884
vt 0.004044 0.615475
vt 0.195956 0.615475
vt 0.015780 0.568888
vt 0.184220 0.568888
vt 0.034060 0.500000
vt 0.165940 0.500000
vt 0.560618 0.352406
vt 0.711128 0.461758
s 0
usemtl Carrot
f 32/1/1 2/2/1 8/3/1 37/4/1
f 49/5/2 20/6/2 26/7/2 55/8/2
f 37/9/3 8/10/3 14/11/3 43/12/3
f 43/13/4 14/11/4 20/6/4 49/5/4
f 55/14/5 26/15/5 2/16/5 32/17/5
f 8/3/6 2/2/6 6/18/6 12/19/6
f 12/19/7 6/18/7 5/20/7 11/21/7
f 11/22/8 5/23/8 4/24/8 10/25/8
f 10/25/9 4/24/9 3/26/9 9/27/9
f 9/27/10 3/26/10 1/28/10 7/29/10
f 14/11/11 8/10/11 12/30/11 18/31/11
f 18/31/12 12/30/12 11/32/12 17/33/12
f 17/34/13 11/35/13 10/25/13 16/36/13
f 16/36/14 10/25/14 9/27/14 15/37/14
f 15/37/15 9/27/15 7/29/15 13/38/15
f 20/6/16 14/11/16 18/39/16 24/40/16
f 24/40/17 18/39/17 17/41/17 23/42/17
f 23/43/18 17/44/18 16/36/18 22/45/18
f 22/45/19 16/36/19 15/37/19 21/46/19
f 21/46/20 15/37/20 13/38/20 19/47/20
f 26/7/21 20/6/21 24/48/21 30/49/21
f 30/49/22 24/48/22 23/50/22 29/51/22
f 29/52/23 23/53/23 22/45/23 28/54/23
f 28/54/24 22/45/24 21/46/24 27/55/24
f 27/55/25 21/46/25 19/47/25 25/56/25
f 2/16/26 26/15/26 30/57/26 6/58/26
f 6/58/27 30/57/27 29/59/27 5/60/27
f 5/61/28 29/62/28 28/54/28 4/24/28
f 4/24/29 28/54/29 27/55/29 3/26/29
f 3/26/30 27/55/30 25/56/30 1/28/30
f 7/29/31 1/28/31 25/56/31 19/47/31 13/38/31
f 32/1/32 37/4/32 39/63/32 36/64/32
f 36/64/33 39/63/33 40/65/33 35/66/33
f 35/66/34 40/65/34 41/67/34 34/68/34
f 34/69/35 41/70/35 42/71/35 33/72/35
f 33/72/36 42/71/36 38/73/36 31/74/36
f 37/9/37 43/12/37 45/75/37 39/76/37
f 39/76/38 45/75/38 46/77/38 40/78/38
f 40/78/39 46/77/39 47/79/39 41/80/39
f 41/81/40 47/82/40 48/83/40 42/71/40
f 42/71/41 48/83/41 44/84/41 38/73/41
f 43/13/42 49/5/42 51/85/42 45/86/42
f 45/86/43 51/85/43 52/87/43 46/88/43
f 46/88/44 52/87/44 53/89/44 47/90/44
f 47/91/45 53/92/45 54/93/45 48/83/45
f 48/83/46 54/93/46 50/94/46 44/84/46
f 49/5/47 55/8/47 57/95/47 51/96/47
f 51/96/48 57/95/48 58/97/48 52/98/48
f 52/98/49 58/97/49 59/99/49 53/100/49
f 53/101/50 59/102/50 60/103/50 54/93/50
f 54/93/51 60/103/51 56/104/51 50/94/51
f 55/14/52 32/17/52 36/105/52 57/106/52
f 57/106/53 36/105/53 35/107/53 58/108/53
f 58/108/54 35/107/54 34/109/54 59/110/54
f 59/111/55 34/112/55 33/72/55 60/103/55
f 60/103/56 33/72/56 31/74/56 56/104/56
f 31/74/57 38/73/57 44/84/57 50/94/57 56/104/57
o Plane.002
v 0.117161 0.360010 0.006697
v 0.086093 0.202511 -0.036298
v 0.111973 0.313829 -0.018921
v 0.059269 0.202862 0.053004
v 0.109227 0.360114 0.033111
v 0.090682 0.314107 0.051962
v 0.002103 -0.086941 -0.026108
v 0.052061 0.070311 -0.046001
v 0.020648 -0.040934 -0.044959
v -0.005831 -0.086837 0.000306
v 0.025237 0.070662 0.043301
v -0.000643 -0.040656 0.025924
v -0.107437 0.342520 -0.000074
v -0.089574 0.186204 -0.030194
v -0.107867 0.293263 -0.021518
v -0.050754 0.210015 0.056348
v -0.095955 0.349563 0.025524
v -0.077054 0.312163 0.047174
v -0.017885 -0.077612 0.000927
v -0.063086 0.061936 -0.029898
v -0.036786 -0.040212 -0.020724
v -0.006402 -0.070569 0.026524
v -0.024266 0.085747 0.056644
v -0.005973 -0.021312 0.047968
v 0.054812 0.354493 -0.057149
v 0.012305 0.191110 -0.060276
v 0.032325 0.303846 -0.068061
v 0.081122 0.210259 0.008261
v 0.075167 0.360157 -0.036877
v 0.086948 0.319046 -0.013661
v 0.002908 -0.090372 0.002508
v -0.003048 0.059527 -0.042630
v -0.008873 -0.049260 -0.020709
v 0.023263 -0.084707 0.022780
v 0.065770 0.078676 0.025907
v 0.045750 -0.034061 0.033692
v 0.025991 0.336890 -0.126594
v -0.025194 0.199670 -0.071107
v -0.000525 0.301233 -0.104099
v 0.053827 0.168583 -0.113914
v 0.049364 0.327695 -0.139255
v 0.062196 0.276558 -0.138076
v -0.040356 -0.083905 -0.011817
v -0.044818 0.075206 -0.037158
v -0.053188 -0.032769 -0.012996
v -0.016983 -0.093100 -0.024478
v 0.034202 0.044119 -0.079965
v 0.009534 -0.057443 -0.046973
v 0.030555 0.327028 0.105929
v -0.007702 0.168927 0.067487
v 0.005289 0.277703 0.096701
v 0.088706 0.189626 0.053560
v 0.059071 0.333151 0.101809
v 0.081812 0.294132 0.085646
v 0.018311 -0.101286 -0.017173
v -0.011324 0.042239 0.031076
v -0.004430 -0.062267 -0.001010
v 0.046827 -0.095163 -0.021293
v 0.085085 0.062938 0.017148
v 0.072094 -0.045837 -0.012065
v -0.091244 0.329295 -0.027560
v -0.089318 0.171486 0.002840
v -0.102931 0.278188 -0.012329
v -0.005321 0.204980 -0.040539
v -0.066399 0.339202 -0.040391
v -0.036259 0.304774 -0.046761
v -0.001777 -0.085394 0.015399
v -0.062855 0.048828 0.015547
v -0.031917 -0.050966 0.021769
v 0.023068 -0.075487 0.002568
v 0.021142 0.082322 -0.027833
v 0.034755 -0.024381 -0.012663
v 0.022422 0.345763 0.088148
v 0.041632 0.195407 0.043843
v 0.042223 0.302493 0.074362
v -0.055556 0.190136 0.049393
v -0.006324 0.344204 0.089789
v -0.034918 0.298310 0.078767
v -0.020209 -0.086522 -0.032128
v 0.029022 0.067545 0.008268
v 0.008385 -0.040628 -0.021106
v -0.048956 -0.088081 -0.030487
v -0.068165 0.062274 0.013818
v -0.068757 -0.044812 -0.016701
vn 0.9249 -0.2586 0.2788
vn 0.8764 0.1858 -0.4443
vn 0.7188 -0.1741 -0.6731
vn -0.5156 -0.1488 -0.8438
vn -0.1952 0.2761 -0.9411
vn -0.3944 -0.1785 -0.9014
vn 0.0696 -0.2738 0.9593
vt 0.000000 0.352109
vt 0.103130 0.103130
vt 0.352109 0.000000
vt 0.647891 0.000000
vt 0.896870 0.103130
vt 1.000000 0.352109
vt 1.000000 0.647891
vt 0.896870 0.896870
vt 0.647891 1.000000
vt 0.352109 1.000000
vt 0.103130 0.896870
vt 0.000000 0.647891
s 0
usemtl Leaf
f 62/113/58 63/114/58 61/115/58 65/116/58 66/117/58 64/118/58 71/119/58 72/120/58 70/121/58 67/122/58 69/123/58 68/124/58
f 74/113/59 75/114/59 73/115/59 77/116/59 78/117/59 76/118/59 83/119/59 84/120/59 82/121/59 79/122/59 81/123/59 80/124/59
f 86/113/60 87/114/60 85/115/60 89/116/60 90/117/60 88/118/60 95/119/60 96/120/60 94/121/60 91/122/60 93/123/60 92/124/60
f 98/113/61 99/114/61 97/115/61 101/116/61 102/117/61 100/118/61 107/119/61 108/120/61 106/121/61 103/122/61 105/123/61 104/124/61
f 110/113/62 111/114/62 109/115/62 113/116/62 114/117/62 112/118/62 119/119/62 120/120/62 118/121/62 115/122/62 117/123/62 116/124/62
f 122/113/63 123/114/63 121/115/63 125/116/63 126/117/63 124/118/63 131/119/63 132/120/63 130/121/63 127/122/63 129/123/63 128/124/63
f 134/113/64 135/114/64 133/115/64 137/116/64 138/117/64 136/118/64 143/119/64 144/120/64 142/121/64 139/122/64 141/123/64 140/124/64
