# Blender 4.1.1
# www.blender.org
mtllib tire.mtl
o Cylinder
v -0.080291 -0.000000 -0.108258
v 0.079702 0.000000 -0.274052
v -0.080291 -0.069587 -0.082930
v 0.079702 -0.176157 -0.209936
v -0.080291 -0.106613 -0.018799
v 0.079702 -0.269889 -0.047589
v -0.080291 -0.093754 0.054129
v 0.079702 -0.237336 0.137026
v -0.080291 -0.037026 0.101729
v 0.079702 -0.093731 0.257525
v -0.080291 0.037026 0.101729
v 0.079702 0.093731 0.257525
v -0.080291 0.093754 0.054129
v 0.079702 0.237336 0.137026
v -0.080291 0.106613 -0.018799
v 0.079702 0.269889 -0.047589
v -0.080291 0.069587 -0.082930
v 0.079702 0.176157 -0.209936
v -0.120862 -0.000000 -0.274052
v -0.120862 -0.176157 -0.209936
v -0.120862 -0.269889 -0.047589
v -0.120862 -0.237336 0.137026
v -0.120862 -0.093731 0.257525
v -0.120862 0.093731 0.257525
v -0.120862 0.237336 0.137026
v -0.120862 0.269889 -0.047589
v -0.120862 0.176157 -0.209936
v -0.090415 -0.000000 -0.219874
v -0.090415 -0.141332 -0.168433
v -0.090415 -0.216534 -0.038181
v -0.090415 -0.190416 0.109937
v -0.090415 -0.075201 0.206614
v -0.090415 0.075201 0.206614
v -0.090415 0.190416 0.109937
v -0.090415 0.216534 -0.038181
v -0.090415 0.141332 -0.168433
v -0.073306 -0.000000 -0.010673
v -0.073306 -0.006860 -0.008176
v -0.073306 -0.010511 -0.001853
v -0.073306 -0.009243 0.005336
v -0.073306 -0.003650 0.010029
v -0.073306 0.003650 0.010029
v -0.073306 0.009243 0.005336
v -0.073306 0.010511 -0.001853
v -0.073306 0.006860 -0.008176
v -0.073306 -0.000000 -0.108258
v -0.073306 -0.069587 -0.082930
v -0.073306 -0.106613 -0.018799
v -0.073306 -0.093754 0.054129
v -0.073306 -0.037026 0.101729
v -0.073306 0.037026 0.101729
v -0.073306 0.093754 0.054129
v -0.073306 0.106613 -0.018799
v -0.073306 0.069587 -0.082930
v -0.069696 -0.000000 -0.010673
v -0.069696 -0.006860 -0.008176
v -0.069696 -0.010511 -0.001853
v -0.069696 -0.009243 0.005336
v -0.069696 -0.003650 0.010029
v -0.069696 0.003650 0.010029
v -0.069696 0.009243 0.005336
v -0.069696 0.010511 -0.001853
v -0.069696 0.006860 -0.008176
vn -0.0000 -0.3420 -0.9397
vn -0.0000 -0.8660 -0.5000
vn -0.0000 -0.9848 0.1736
vn -0.0000 -0.6428 0.7660
vn -0.0000 -0.0000 1.0000
vn -0.0000 0.6428 0.7660
vn -0.0000 0.9848 0.1736
vn 1.0000 -0.0000 -0.0000
vn -0.0000 0.8660 -0.5000
vn -0.0000 0.3420 -0.9397
vn -0.0000 -0.3420 0.9397
vn -0.8582 0.1755 0.4823
vn -0.8582 0.4445 0.2566
vn -0.8582 0.5055 -0.0891
vn -0.8582 0.3299 -0.3932
vn -0.8582 -0.0000 -0.5133
vn -0.8582 -0.3299 -0.3932
vn -0.8582 -0.5055 -0.0891
vn -0.8582 -0.4445 0.2566
vn -0.8582 -0.1755 0.4823
vn -0.9954 0.0329 0.0903
vn -0.9954 0.0832 0.0480
vn -0.9954 0.0946 -0.0167
vn -0.9954 0.0618 -0.0736
vn -0.9954 -0.0000 -0.0961
vn -0.9954 -0.0618 -0.0736
vn -0.9954 -0.0946 -0.0167
vn -0.9954 -0.0832 0.0480
vn -0.9954 -0.0329 0.0903
vn -0.0000 0.8660 0.5000
vn -0.0000 -0.6428 -0.7660
vn -0.0000 0.9848 -0.1736
vn -0.0000 -0.9848 -0.1736
vn -0.0000 0.6428 -0.7660
vn -0.0000 0.3420 0.9397
vn -0.0000 -0.8660 0.5000
vn -0.0000 -0.0000 -1.0000
vn -1.0000 -0.0000 -0.0000
vt 1.000000 0.500000
vt 1.000000 1.000000
vt 0.888889 1.000000
vt 0.888889 0.500000
vt 0.777778 1.000000
vt 0.777778 0.500000
vt 0.666667 1.000000
vt 0.666667 0.500000
vt 0.555556 1.000000
vt 0.555556 0.500000
vt 0.444444 1.000000
vt 0.444444 0.500000
vt 0.333333 1.000000
vt 0.333333 0.500000
vt 0.222222 1.000000
vt 0.222222 0.500000
vt 0.404269 0.433851
vt 0.250000 0.490000
vt 0.095731 0.433851
vt 0.013646 0.291676
vt 0.042154 0.130000
vt 0.167915 0.024474
vt 0.332085 0.024474
vt 0.457846 0.130000
vt 0.486354 0.291676
vt 0.111111 1.000000
vt 0.111111 0.500000
vt 0.000000 1.000000
vt 0.000000 0.500000
vt 0.689060 0.322626
vt 0.750000 0.344806
vt 0.873771 0.397505
vt 0.750000 0.442554
vt 0.750000 0.490000
vt 0.904269 0.433851
vt 0.939629 0.283437
vt 0.986354 0.291676
vt 0.916757 0.153723
vt 0.957846 0.130000
vt 0.815857 0.069059
vt 0.832085 0.024474
vt 0.684143 0.069059
vt 0.667915 0.024474
vt 0.583244 0.153723
vt 0.542154 0.130000
vt 0.560372 0.283437
vt 0.513646 0.291676
vt 0.626229 0.397505
vt 0.595731 0.433851
vt 0.810940 0.322626
vt 0.843366 0.266463
vt 0.832105 0.202597
vt 0.782426 0.160911
vt 0.717574 0.160911
vt 0.667895 0.202597
vt 0.656634 0.266463
vt 0.756008 0.257160
vt 0.759205 0.251623
vt 0.750000 0.259347
vt 0.758095 0.245327
vt 0.753197 0.241217
vt 0.746803 0.241217
vt 0.741905 0.245327
vt 0.740795 0.251623
vt 0.743992 0.257160
s 0
usemtl Tire
f 19/1/1 2/2/1 4/3/1 20/4/1
f 20/4/2 4/3/2 6/5/2 21/6/2
f 21/6/3 6/5/3 8/7/3 22/8/3
f 22/8/4 8/7/4 10/9/4 23/10/4
f 23/10/5 10/9/5 12/11/5 24/12/5
f 24/12/6 12/11/6 14/13/6 25/14/6
f 25/14/7 14/13/7 16/15/7 26/16/7
f 4/17/8 2/18/8 18/19/8 16/20/8 14/21/8 12/22/8 10/23/8 8/24/8 6/25/8
f 26/16/9 16/15/9 18/26/9 27/27/9
f 27/27/10 18/26/10 2/28/10 19/29/10
f 29/32/12 28/33/12 19/34/12 20/35/12
f 30/36/13 29/32/13 20/35/13 21/37/13
f 31/38/14 30/36/14 21/37/14 22/39/14
f 32/40/15 31/38/15 22/39/15 23/41/15
f 33/42/16 32/40/16 23/41/16 24/43/16
f 34/44/17 33/42/17 24/43/17 25/45/17
f 35/46/18 34/44/18 25/45/18 26/47/18
f 36/48/19 35/46/19 26/47/19 27/49/19
f 28/33/20 36/48/20 27/49/20 19/34/20
usemtl inner
f 3/50/21 1/31/21 28/33/21 29/32/21
f 5/51/22 3/50/22 29/32/22 30/36/22
f 7/52/23 5/51/23 30/36/23 31/38/23
f 9/53/24 7/52/24 31/38/24 32/40/24
f 11/54/25 9/53/25 32/40/25 33/42/25
f 13/55/26 11/54/26 33/42/26 34/44/26
f 15/56/27 13/55/27 34/44/27 35/46/27
f 17/30/28 15/56/28 35/46/28 36/48/28
f 1/31/29 17/30/29 36/48/29 28/33/29
usemtl innerinner
f 17/30/11 1/31/11 46/31/11 54/30/11
f 38/57/30 39/58/30 57/58/30 56/57/30
f 11/54/31 13/55/31 52/55/31 51/54/31
f 5/51/32 7/52/32 49/52/32 48/51/32
f 13/55/33 15/56/33 53/56/33 52/55/33
f 7/52/34 9/53/34 50/53/34 49/52/34
f 1/31/35 3/50/35 47/50/35 46/31/35
f 15/56/36 17/30/36 54/30/36 53/56/36
f 9/53/37 11/54/37 51/54/37 50/53/37
f 3/50/30 5/51/30 48/51/30 47/50/30
f 38/57/38 37/59/38 46/31/38 47/50/38
f 39/58/38 38/57/38 47/50/38 48/51/38
f 40/60/38 39/58/38 48/51/38 49/52/38
f 41/61/38 40/60/38 49/52/38 50/53/38
f 42/62/38 41/61/38 50/53/38 51/54/38
f 43/63/38 42/62/38 51/54/38 52/55/38
f 44/64/38 43/63/38 52/55/38 53/56/38
f 45/65/38 44/64/38 53/56/38 54/30/38
f 37/59/38 45/65/38 54/30/38 46/31/38
f 45/65/11 37/59/11 55/59/11 63/65/11
f 42/62/31 43/63/31 61/63/31 60/62/31
f 39/58/32 40/60/32 58/60/32 57/58/32
f 43/63/33 44/64/33 62/64/33 61/63/33
f 40/60/34 41/61/34 59/61/34 58/60/34
f 37/59/35 38/57/35 56/57/35 55/59/35
f 44/64/36 45/65/36 63/65/36 62/64/36
f 41/61/37 42/62/37 60/62/37 59/61/37
usemtl axel
f 55/59/38 56/57/38 57/58/38 58/60/38 59/61/38 60/62/38 61/63/38 62/64/38 63/65/38
