# Blender 4.0.2
# www.blender.org
mtllib grass.mtl
o Plane
v -0.000000 0.200000 0.000000
v 0.000000 -0.000000 0.026756
v 0.000000 -0.000000 -0.026756
v -0.000000 0.186857 0.001758
v -0.000000 0.186857 -0.001758
v -0.000000 0.175866 0.003229
v -0.000000 0.164874 0.004699
v -0.000000 0.153883 0.006170
v -0.000000 0.142891 0.007640
v -0.000000 0.131899 0.009111
v -0.000000 0.120908 0.010581
v -0.000000 0.109916 0.012052
v 0.000000 0.098924 0.013522
v 0.000000 0.087933 0.014993
v 0.000000 0.076941 0.016463
v 0.000000 0.065950 0.017933
v 0.000000 0.054958 0.019404
v 0.000000 0.043966 0.020874
v 0.000000 0.032975 0.022345
v 0.000000 0.021983 0.023815
v 0.000000 0.010992 0.025286
v 0.000000 0.010992 -0.025286
v 0.000000 0.021983 -0.023815
v 0.000000 0.032975 -0.022345
v 0.000000 0.043966 -0.020874
v 0.000000 0.054958 -0.019404
v 0.000000 0.065950 -0.017933
v 0.000000 0.076941 -0.016463
v 0.000000 0.087933 -0.014993
v 0.000000 0.098924 -0.013522
v -0.000000 0.109916 -0.012052
v -0.000000 0.120908 -0.010581
v -0.000000 0.131899 -0.009111
v -0.000000 0.142891 -0.007640
v -0.000000 0.153883 -0.006170
v -0.000000 0.164874 -0.004699
v -0.000000 0.175866 -0.003229
vn 1.0000 -0.0000 -0.0000
vt 0.000000 0.000000
vt 0.065713 0.000000
vt 0.065713 0.065713
vt 0.120671 0.000000
vt 0.120671 0.120671
vt 0.945042 0.945042
vt 0.945042 0.000000
vt 1.000000 0.000000
vt 1.000000 1.000000
vt 0.175629 0.000000
vt 0.175629 0.175629
vt 0.230587 0.000000
vt 0.230587 0.230587
vt 0.285545 0.000000
vt 0.285545 0.285545
vt 0.340503 0.000000
vt 0.340503 0.340503
vt 0.395462 0.000000
vt 0.395461 0.395461
vt 0.450420 0.000000
vt 0.450419 0.450419
vt 0.505378 0.000000
vt 0.505378 0.505378
vt 0.560336 0.000000
vt 0.560336 0.560336
vt 0.615294 0.000000
vt 0.615294 0.615294
vt 0.670252 0.000000
vt 0.670252 0.670252
vt 0.725210 0.000000
vt 0.725210 0.725210
vt 0.780168 0.000000
vt 0.780168 0.780168
vt 0.835126 0.000000
vt 0.835126 0.835126
vt 0.890084 0.000000
vt 0.890084 0.890084
s 0
usemtl Material
f 1/1/1 4/2/1 5/3/1
f 5/3/1 4/2/1 6/4/1 37/5/1
f 22/6/1 21/7/1 2/8/1 3/9/1
f 37/5/1 6/4/1 7/10/1 36/11/1
f 36/11/1 7/10/1 8/12/1 35/13/1
f 35/13/1 8/12/1 9/14/1 34/15/1
f 34/15/1 9/14/1 10/16/1 33/17/1
f 33/17/1 10/16/1 11/18/1 32/19/1
f 32/19/1 11/18/1 12/20/1 31/21/1
f 31/21/1 12/20/1 13/22/1 30/23/1
f 30/23/1 13/22/1 14/24/1 29/25/1
f 29/25/1 14/24/1 15/26/1 28/27/1
f 28/27/1 15/26/1 16/28/1 27/29/1
f 27/29/1 16/28/1 17/30/1 26/31/1
f 26/31/1 17/30/1 18/32/1 25/33/1
f 25/33/1 18/32/1 19/34/1 24/35/1
f 24/35/1 19/34/1 20/36/1 23/37/1
f 23/37/1 20/36/1 21/7/1 22/6/1
