# Blender 4.1.1
# www.blender.org
mtllib map_water.mtl
o Plane
v -234.103119 9.726852 -162.553558
v -277.101013 9.726852 -235.933060
v -275.092651 9.726852 -205.233917
v -266.627106 9.726852 -181.423584
v -268.744751 9.726852 -261.102417
v -252.363846 9.726852 -286.088837
v -229.043488 9.726852 -308.299042
v -205.083710 9.726852 -325.741699
v -140.820953 9.726852 -329.230194
v -114.424217 9.726852 -300.200439
v -101.064423 9.726852 -282.837372
v -101.266014 9.726852 -260.654083
v -87.518318 9.726852 -229.337921
v -76.728691 9.726852 -201.955521
v -76.007462 9.726852 -180.832642
v -99.791901 9.726852 -157.320297
v -121.596909 9.726852 -135.802216
v -198.378754 12.832863 -123.387352
v -190.167908 11.183604 -130.637878
v -197.691574 9.726852 -140.159958
v -45.974365 5.766926 45.450897
v -47.908066 8.938580 37.082092
v -0.266205 8.938581 24.979187
v -16.149200 9.364900 10.878159
v -56.157761 9.364900 24.264008
v -64.650284 11.287542 9.116150
v -37.159927 11.287542 -9.452454
v -59.872894 10.558001 -24.799072
v -79.544052 10.558001 -0.785767
v -105.685356 12.020641 -12.019974
v -89.316879 12.020641 -36.761581
v -126.825272 12.540386 -50.864227
v -142.797958 12.540386 -29.146332
v -182.412445 13.390263 -39.536621
v -157.931412 13.390263 -64.736877
v -163.550873 12.915333 -71.746017
v -196.079391 12.915333 -63.734283
v -198.441406 13.671566 -85.119949
v -159.100296 12.832863 -112.407051
v -164.418396 13.671566 -85.342560
v -162.815094 13.580769 -103.007828
v -151.952332 11.183604 -119.854797
v -201.096497 13.580769 -106.134216
v -0.511490 5.766926 56.848907
v -46.039948 6.574126 63.821320
v -13.229706 6.574126 83.904205
v -64.765251 6.728508 104.779968
v -41.639175 6.728508 125.294861
v -86.722038 6.449009 131.130066
v -59.843475 6.449009 151.482330
v -103.611961 9.879117 167.955566
v -81.616524 9.879117 180.222900
v -125.221542 13.753962 210.638885
v -103.615417 13.753962 222.960510
v -146.642685 15.113642 230.346344
v -118.192970 15.113643 250.468475
v -168.113464 15.376507 248.926147
v -129.123260 15.376509 270.554901
v -191.391068 12.390801 314.933380
v -183.420807 15.179174 260.949432
v -196.362061 14.298544 311.295563
v -202.538300 13.827436 278.044525
v -211.882034 13.827436 314.232574
v -229.415955 11.694942 277.987610
v -238.380173 9.293027 319.340118
v -267.273254 7.221210 303.965668
v -260.689758 7.221210 325.676422
v -285.897888 2.192942 308.629730
v -270.316956 2.192942 331.195526
v -298.109192 -8.725342 312.656342
v -281.324280 -8.725342 338.502411
v -135.362396 12.139643 305.624969
v -184.188232 12.139643 319.397980
v -151.859741 9.383687 325.463531
v -199.122528 9.383687 338.394684
v -166.059982 8.733842 354.699371
v -204.488434 8.733842 350.888092
v -171.071823 5.029091 377.461517
v -214.590530 5.029091 360.841827
v -181.149338 -4.672731 398.780792
v -219.541046 -4.672731 380.695160
v -181.350769 3.279330 383.641571
v -218.941681 3.279330 366.681732
v -184.305954 -13.198303 406.597443
v -222.697662 -13.198303 388.511810
v -234.103119 10.579315 -162.553558
v -277.101013 10.579315 -235.933060
v -275.092651 10.579315 -205.233917
v -266.627106 10.579315 -181.423584
v -268.744751 10.579315 -261.102417
v -252.363846 10.579315 -286.088837
v -229.043488 10.579315 -308.299042
v -205.083710 10.579315 -325.741699
v -140.820953 10.579315 -329.230194
v -114.424217 10.579315 -300.200439
v -101.064423 10.579315 -282.837372
v -101.266014 10.579315 -260.654083
v -87.518318 10.579315 -229.337921
v -76.728691 10.579315 -201.955521
v -76.007462 10.579315 -180.832642
v -99.791901 10.579315 -157.320297
v -121.594719 10.579152 -135.818726
v -198.357101 13.680634 -123.474007
v -190.142868 12.028055 -130.751755
v -197.688782 10.579049 -140.181076
v -45.969391 6.616545 45.520264
v -47.904205 9.787956 37.154480
v -0.262970 9.786736 25.064697
v -16.134369 10.216441 10.914902
v -56.137222 10.215823 24.310913
v -64.646263 12.139787 9.135010
v -37.148758 12.139359 -9.421219
v -59.868813 11.410453 -24.800003
v -79.533363 11.410382 -0.780960
v -105.664963 12.872730 -12.005112
v -89.293457 12.872609 -36.744431
v -126.813278 13.392713 -50.854767
v -142.784882 13.392683 -29.135681
v -182.411407 14.242714 -39.540939
v -157.928207 14.242718 -64.738571
v -163.554718 13.767759 -71.739243
v -196.082306 13.767731 -63.724182
v -198.439224 14.523897 -85.105179
v -159.072922 13.678491 -112.511246
v -164.416092 14.523876 -85.326599
v -162.810486 14.432799 -103.034576
v -151.931610 12.029295 -119.960014
v -201.092072 14.432828 -106.160080
v -0.505417 6.617797 56.900604
v -46.032791 7.426388 63.804260
v -13.223511 7.426443 83.889740
v -64.766411 7.580970 104.781219
v -41.640869 7.580967 125.296814
v -86.704422 7.300860 131.102997
v -59.824158 7.300740 151.452789
v -103.573647 10.728468 167.893677
v -81.578232 10.728470 180.161041
v -125.194489 14.604788 210.593536
v -103.588043 14.604741 222.914490
v -146.630859 15.965824 230.327942
v -118.180618 15.965798 250.449249
v -168.102600 16.228630 248.947693
v -129.123322 16.228642 270.578613
v -191.348694 13.240152 314.992523
v -183.352692 16.027660 260.995514
v -196.339050 15.150276 311.322235
v -202.605133 14.677273 278.042725
v -211.966431 14.675711 314.232147
v -229.512878 12.541821 277.997253
v -238.467163 10.140821 319.359406
v -267.428162 8.056322 304.038422
v -260.855591 8.053675 325.755219
v -286.276611 2.919188 308.865997
v -270.672211 2.937116 331.411591
v -298.569092 -8.076763 312.963837
v -281.784149 -8.076763 338.809845
v -135.340057 12.986734 305.717804
v -184.158264 12.983692 319.513580
v -151.827042 10.226744 325.585541
v -199.110657 10.234219 338.450775
v -166.076538 9.581464 354.788544
v -204.514450 9.577587 351.006866
v -171.123703 5.863550 377.627899
v -214.647903 5.863542 361.006378
v -181.377838 -4.012617 399.269379
v -219.759354 -3.994537 381.163239
v -181.474396 4.076050 383.918427
v -219.065659 4.075737 366.959320
v -184.564484 -12.599411 407.146271
v -222.956192 -12.599411 389.060577
vn -0.0135 -0.9947 0.1017
vn 0.0548 -0.9985 0.0040
vn -0.1116 -0.9914 -0.0677
vn 0.0130 -0.9997 0.0224
vn -0.0012 -0.9878 -0.1557
vn -0.0055 -0.9999 0.0090
vn -0.0053 -0.9991 -0.0427
vn -0.0073 -0.9997 -0.0251
vn -0.0250 -0.9989 0.0385
vn -0.0002 -1.0000 0.0047
vn -0.0367 -0.9963 -0.0775
vn -0.0396 -0.9967 0.0702
vn -0.0098 -0.9985 0.0537
vn 0.0222 -0.9994 0.0246
vn 0.0210 -0.9991 -0.0378
vn -0.0499 -0.9960 0.0748
vn -0.0402 -0.9988 -0.0297
vn 0.0054 -1.0000 -0.0065
vn -0.0108 -0.9999 -0.0075
vn -0.0019 -1.0000 0.0026
vn 0.1238 -0.9923 -0.0015
vn -0.0185 -0.9997 -0.0160
vn -0.0128 -0.9994 0.0319
vn 0.0897 -0.9954 -0.0345
vn 0.2857 -0.9476 -0.1430
vn 0.5395 -0.7608 -0.3607
vn -0.0190 -0.9960 -0.0874
vn -0.0500 -0.9824 -0.1799
vn -0.0035 -0.9995 -0.0328
vn 0.0496 -0.9788 -0.1988
vn 0.2147 -0.8586 -0.4655
vn -0.0480 -0.9841 0.1707
vn 0.0784 -0.9787 -0.1895
vn 0.3033 -0.7025 -0.6438
vn -0.0000 -1.0000 -0.0000
vn 0.0135 0.9947 -0.1019
vn -0.0545 0.9985 -0.0039
vn 0.1118 0.9914 0.0677
vn -0.0130 0.9997 -0.0224
vn 0.0012 0.9878 0.1557
vn 0.0055 0.9999 -0.0089
vn 0.0053 0.9991 0.0427
vn 0.0073 0.9997 0.0252
vn 0.0250 0.9989 -0.0385
vn 0.0002 1.0000 -0.0047
vn 0.0367 0.9963 0.0775
vn 0.0396 0.9967 -0.0702
vn 0.0098 0.9985 -0.0538
vn -0.0222 0.9995 -0.0246
vn -0.0210 0.9991 0.0378
vn 0.0499 0.9959 -0.0748
vn 0.0402 0.9988 0.0297
vn -0.0054 1.0000 0.0066
vn 0.0108 0.9999 0.0075
vn 0.0019 1.0000 -0.0027
vn -0.1238 0.9923 0.0015
vn 0.0185 0.9997 0.0160
vn 0.0129 0.9994 -0.0321
vn -0.0899 0.9954 0.0345
vn -0.2865 0.9473 0.1432
vn -0.5389 0.7613 0.3604
vn 0.0190 0.9960 0.0874
vn 0.0500 0.9824 0.1800
vn 0.0035 0.9995 0.0328
vn -0.0495 0.9788 0.1986
vn -0.2145 0.8588 0.4652
vn 0.0479 0.9842 -0.1707
vn -0.0789 0.9785 0.1906
vn -0.3032 0.7029 0.6434
vn -0.0000 1.0000 -0.0000
vn -0.8363 -0.0000 -0.5483
vn -0.9491 -0.0000 -0.3151
vn -0.9979 -0.0000 0.0653
vn -0.9422 -0.0000 0.3350
vn -0.5018 -0.0000 0.8650
vn -0.6897 -0.0000 -0.7241
vn -0.5886 -0.0000 -0.8085
vn -0.0542 -0.0000 -0.9985
vn 0.7399 -0.0000 -0.6728
vn 0.7925 -0.0000 -0.6098
vn 1.0000 -0.0000 0.0091
vn 0.9157 -0.0000 -0.4020
vn 0.9304 -0.0000 -0.3666
vn 0.9994 -0.0000 -0.0341
vn 0.7030 -0.0000 0.7112
vn 0.7023 0.0060 0.7119
vn 0.4656 0.0570 0.8832
vn -0.7858 0.0618 0.6154
vn -0.5236 0.0114 0.8519
vn -0.7682 -0.0023 -0.6402
vn 0.8211 0.0008 0.5708
vn 0.9045 -0.0158 0.4262
vn -0.9753 -0.0133 0.2204
vn -0.9095 -0.0007 -0.4158
vn 0.6647 0.0466 -0.7457
vn -0.8726 -0.0063 0.4884
vn 0.5600 0.0097 -0.8285
vn -0.3949 -0.0034 0.9187
vn 0.3520 0.0073 -0.9360
vn -0.2539 -0.0015 0.9672
vn 0.7798 0.0022 -0.6261
vn -0.9940 -0.0020 0.1096
vn -0.9877 0.0048 -0.1560
vn -1.0000 0.0072 -0.0038
vn 0.9980 0.0017 -0.0634
vn -0.9921 0.0047 0.1252
vn 0.3764 0.0027 -0.9265
vn 0.7272 0.0639 0.6834
vn -0.4191 -0.0054 0.9079
vn 1.0000 -0.0060 0.0071
vn 0.9304 0.0107 0.3665
vn -0.8415 -0.0258 0.5396
vn 0.4074 0.0005 -0.9132
vn 0.8245 0.0020 0.5659
vn -0.8706 -0.0026 0.4920
vn 0.6961 0.0180 -0.7177
vn -0.5538 -0.0068 0.8326
vn -0.6687 -0.0693 -0.7403
vn 0.9959 -0.0035 0.0904
vn 0.7974 0.0054 0.6035
vn -0.9087 0.0080 -0.4174
vn 0.8889 -0.0053 0.4581
vn -0.8919 0.0058 -0.4521
vn 0.8835 -0.0027 0.4684
vn -0.6775 -0.0121 -0.7354
vn 0.8784 -0.0076 0.4779
vn -0.6547 0.0101 -0.7559
vn -0.5958 -0.0176 0.8029
vn -0.6182 0.0599 -0.7838
vn 0.1847 -0.0085 0.9828
vn -0.6654 0.0199 -0.7462
vn 0.1883 0.0081 0.9821
vn 0.0015 0.0048 -1.0000
vn 0.2752 -0.0147 0.9613
vn -0.5619 -0.0437 -0.8260
vn 0.4975 0.0021 0.8675
vn -0.2692 0.0976 -0.9581
vn -0.6381 -0.6489 0.4144
vn 0.5488 0.0070 0.8359
vn -0.4027 0.1135 -0.9083
vn 0.9847 -0.0247 0.1724
vn -0.5301 -0.0646 0.8455
vn 0.7721 -0.1049 0.6268
vn -0.7886 0.0812 -0.6095
vn 0.8979 -0.0630 0.4357
vn -0.9188 0.0329 -0.3933
vn 0.9763 0.0068 0.2165
vn -0.7148 0.0818 -0.6945
vn 0.9778 0.1891 0.0899
vn -0.8102 0.0678 -0.5822
vn 0.5309 -0.1685 0.8305
vn -0.9780 -0.1588 -0.1350
vn -0.2994 -0.7116 0.6356
vn 0.9167 0.0260 0.3988
vn -0.9169 -0.0252 -0.3983
vt 0.000000 0.000000
s 0
f 20/1/1 17/1/1 42/1/1 19/1/1
f 60/1/2 61/1/2 63/1/2 62/1/2
f 57/1/3 59/1/3 61/1/3 60/1/3
f 37/1/4 36/1/4 35/1/4 34/1/4
f 22/1/5 23/1/5 44/1/5 21/1/5
f 55/1/6 56/1/6 58/1/6 57/1/6
f 38/1/7 40/1/7 36/1/7 37/1/7
f 25/1/8 24/1/8 23/1/8 22/1/8
f 53/1/9 54/1/9 56/1/9 55/1/9
f 43/1/10 41/1/10 40/1/10 38/1/10
f 26/1/11 27/1/11 24/1/11 25/1/11
f 51/1/12 52/1/12 54/1/12 53/1/12
f 18/1/13 39/1/13 41/1/13 43/1/13
f 29/1/14 28/1/14 27/1/14 26/1/14
f 58/1/15 59/1/15 57/1/15
f 49/1/16 50/1/16 52/1/16 51/1/16
f 30/1/17 31/1/17 28/1/17 29/1/17
f 47/1/18 48/1/18 50/1/18 49/1/18
f 33/1/19 32/1/19 31/1/19 30/1/19
f 45/1/20 46/1/20 48/1/20 47/1/20
f 62/1/21 63/1/21 65/1/21 64/1/21
f 34/1/22 35/1/22 32/1/22 33/1/22
f 21/1/23 44/1/23 46/1/23 45/1/23
f 64/1/24 65/1/24 67/1/24 66/1/24
f 66/1/25 67/1/25 69/1/25 68/1/25
f 68/1/26 69/1/26 71/1/26 70/1/26
f 59/1/27 58/1/27 72/1/27 73/1/27
f 73/1/28 72/1/28 74/1/28 75/1/28
f 75/1/29 74/1/29 76/1/29 77/1/29
f 77/1/30 76/1/30 78/1/30 79/1/30
f 83/1/31 82/1/31 80/1/31 81/1/31
f 42/1/32 39/1/32 18/1/32 19/1/32
f 79/1/33 78/1/33 82/1/33 83/1/33
f 81/1/34 80/1/34 84/1/34 85/1/34
f 1/1/35 16/1/35 17/1/35 20/1/35
f 4/1/35 15/1/35 16/1/35 1/1/35
f 3/1/35 14/1/35 15/1/35 4/1/35
f 2/1/35 13/1/35 14/1/35 3/1/35
f 7/1/35 8/1/35 9/1/35 10/1/35
f 2/1/35 5/1/35 12/1/35 13/1/35
f 5/1/35 6/1/35 11/1/35 12/1/35
f 6/1/35 7/1/35 10/1/35 11/1/35
f 105/1/36 104/1/36 127/1/36 102/1/36
f 145/1/37 147/1/37 148/1/37 146/1/37
f 142/1/38 145/1/38 146/1/38 144/1/38
f 122/1/39 119/1/39 120/1/39 121/1/39
f 107/1/40 106/1/40 129/1/40 108/1/40
f 140/1/41 142/1/41 143/1/41 141/1/41
f 123/1/42 122/1/42 121/1/42 125/1/42
f 110/1/43 107/1/43 108/1/43 109/1/43
f 138/1/44 140/1/44 141/1/44 139/1/44
f 128/1/45 123/1/45 125/1/45 126/1/45
f 111/1/46 110/1/46 109/1/46 112/1/46
f 136/1/47 138/1/47 139/1/47 137/1/47
f 103/1/48 128/1/48 126/1/48 124/1/48
f 114/1/49 111/1/49 112/1/49 113/1/49
f 143/1/50 142/1/50 144/1/50
f 134/1/51 136/1/51 137/1/51 135/1/51
f 115/1/52 114/1/52 113/1/52 116/1/52
f 132/1/53 134/1/53 135/1/53 133/1/53
f 118/1/54 115/1/54 116/1/54 117/1/54
f 130/1/55 132/1/55 133/1/55 131/1/55
f 147/1/56 149/1/56 150/1/56 148/1/56
f 119/1/57 118/1/57 117/1/57 120/1/57
f 106/1/58 130/1/58 131/1/58 129/1/58
f 149/1/59 151/1/59 152/1/59 150/1/59
f 151/1/60 153/1/60 154/1/60 152/1/60
f 153/1/61 155/1/61 156/1/61 154/1/61
f 144/1/62 158/1/62 157/1/62 143/1/62
f 158/1/63 160/1/63 159/1/63 157/1/63
f 160/1/64 162/1/64 161/1/64 159/1/64
f 162/1/65 164/1/65 163/1/65 161/1/65
f 168/1/66 166/1/66 165/1/66 167/1/66
f 127/1/67 104/1/67 103/1/67 124/1/67
f 164/1/68 168/1/68 167/1/68 163/1/68
f 166/1/69 170/1/69 169/1/69 165/1/69
f 86/1/70 105/1/70 102/1/70 101/1/70
f 89/1/70 86/1/70 101/1/70 100/1/70
f 88/1/70 89/1/70 100/1/70 99/1/70
f 87/1/70 88/1/70 99/1/70 98/1/70
f 92/1/70 95/1/70 94/1/70 93/1/70
f 87/1/70 98/1/70 97/1/70 90/1/70
f 90/1/70 97/1/70 96/1/70 91/1/70
f 91/1/70 96/1/70 95/1/70 92/1/70
f 6/1/71 5/1/71 90/1/71 91/1/71
f 5/1/72 2/1/72 87/1/72 90/1/72
f 2/1/73 3/1/73 88/1/73 87/1/73
f 3/1/74 4/1/74 89/1/74 88/1/74
f 4/1/75 1/1/75 86/1/75 89/1/75
f 7/1/76 6/1/76 91/1/76 92/1/76
f 8/1/77 7/1/77 92/1/77 93/1/77
f 9/1/78 8/1/78 93/1/78 94/1/78
f 10/1/79 9/1/79 94/1/79 95/1/79
f 11/1/80 10/1/80 95/1/80 96/1/80
f 12/1/81 11/1/81 96/1/81 97/1/81
f 13/1/82 12/1/82 97/1/82 98/1/82
f 14/1/83 13/1/83 98/1/83 99/1/83
f 15/1/84 14/1/84 99/1/84 100/1/84
f 16/1/85 15/1/85 100/1/85 101/1/85
f 17/1/86 16/1/86 101/1/86 102/1/86
f 42/1/87 17/1/87 102/1/87 127/1/87
f 20/1/88 19/1/88 104/1/88 105/1/88
f 1/1/89 20/1/89 105/1/89 86/1/89
f 47/1/90 49/1/90 134/1/90 132/1/90
f 50/1/91 48/1/91 133/1/91 135/1/91
f 46/1/92 44/1/92 129/1/92 131/1/92
f 22/1/93 21/1/93 106/1/93 107/1/93
f 45/1/94 47/1/94 132/1/94 130/1/94
f 23/1/95 24/1/95 109/1/95 108/1/95
f 26/1/96 25/1/96 110/1/96 111/1/96
f 27/1/97 28/1/97 113/1/97 112/1/97
f 30/1/98 29/1/98 114/1/98 115/1/98
f 31/1/99 32/1/99 117/1/99 116/1/99
f 34/1/100 33/1/100 118/1/100 119/1/100
f 35/1/101 36/1/101 121/1/101 120/1/101
f 38/1/102 37/1/102 122/1/102 123/1/102
f 18/1/103 43/1/103 128/1/103 103/1/103
f 21/1/104 45/1/104 130/1/104 106/1/104
f 36/1/105 40/1/105 125/1/105 121/1/105
f 43/1/106 38/1/106 123/1/106 128/1/106
f 28/1/107 31/1/107 116/1/107 113/1/107
f 39/1/108 42/1/108 127/1/108 124/1/108
f 33/1/109 30/1/109 115/1/109 118/1/109
f 44/1/110 23/1/110 108/1/110 129/1/110
f 41/1/111 39/1/111 124/1/111 126/1/111
f 25/1/112 22/1/112 107/1/112 110/1/112
f 32/1/113 35/1/113 120/1/113 117/1/113
f 48/1/114 46/1/114 131/1/114 133/1/114
f 37/1/115 34/1/115 119/1/115 122/1/115
f 24/1/116 27/1/116 112/1/116 109/1/116
f 29/1/117 26/1/117 111/1/117 114/1/117
f 19/1/118 18/1/118 103/1/118 104/1/118
f 40/1/119 41/1/119 126/1/119 125/1/119
f 52/1/120 50/1/120 135/1/120 137/1/120
f 49/1/121 51/1/121 136/1/121 134/1/121
f 54/1/122 52/1/122 137/1/122 139/1/122
f 51/1/123 53/1/123 138/1/123 136/1/123
f 56/1/124 54/1/124 139/1/124 141/1/124
f 53/1/125 55/1/125 140/1/125 138/1/125
f 58/1/126 56/1/126 141/1/126 143/1/126
f 55/1/127 57/1/127 142/1/127 140/1/127
f 61/1/128 59/1/128 144/1/128 146/1/128
f 57/1/129 60/1/129 145/1/129 142/1/129
f 63/1/130 61/1/130 146/1/130 148/1/130
f 60/1/131 62/1/131 147/1/131 145/1/131
f 65/1/132 63/1/132 148/1/132 150/1/132
f 62/1/133 64/1/133 149/1/133 147/1/133
f 67/1/134 65/1/134 150/1/134 152/1/134
f 64/1/135 66/1/135 151/1/135 149/1/135
f 69/1/136 67/1/136 152/1/136 154/1/136
f 66/1/137 68/1/137 153/1/137 151/1/137
f 70/1/138 71/1/138 156/1/138 155/1/138
f 71/1/139 69/1/139 154/1/139 156/1/139
f 68/1/140 70/1/140 155/1/140 153/1/140
f 72/1/141 58/1/141 143/1/141 157/1/141
f 59/1/142 73/1/142 158/1/142 144/1/142
f 74/1/143 72/1/143 157/1/143 159/1/143
f 73/1/144 75/1/144 160/1/144 158/1/144
f 76/1/145 74/1/145 159/1/145 161/1/145
f 75/1/146 77/1/146 162/1/146 160/1/146
f 78/1/147 76/1/147 161/1/147 163/1/147
f 77/1/148 79/1/148 164/1/148 162/1/148
f 80/1/149 82/1/149 167/1/149 165/1/149
f 79/1/150 83/1/150 168/1/150 164/1/150
f 82/1/151 78/1/151 163/1/151 167/1/151
f 83/1/152 81/1/152 166/1/152 168/1/152
f 85/1/153 84/1/153 169/1/153 170/1/153
f 84/1/154 80/1/154 165/1/154 169/1/154
f 81/1/155 85/1/155 170/1/155 166/1/155
