# Blender 4.0.2
# www.blender.org
mtllib protoFence.mtl
o fence
v 0.123442 1.265526 0.123442
v 0.123442 0.000000 0.123442
v -0.123442 1.265526 0.123442
v -0.123442 0.000000 0.123442
v 0.123442 1.265526 -0.123442
v 0.123442 0.000000 -0.123442
v -0.123442 1.265526 -0.123442
v -0.123442 0.000000 -0.123442
v 0.000000 1.363619 0.000000
v -0.027548 0.895982 -0.124691
v -0.027548 1.105368 -0.124691
v -0.027547 0.895982 -1.066516
v -0.027547 1.105368 -1.066516
v 0.027548 0.895982 -0.124691
v 0.027548 1.105368 -0.124691
v 0.027548 0.895982 -1.066516
v 0.027548 1.105368 -1.066516
v -0.027548 0.492170 -0.124691
v -0.027548 0.701556 -0.124691
v -0.027547 0.492170 -1.066515
v -0.027547 0.701556 -1.066515
v 0.027548 0.492170 -0.124691
v 0.027548 0.701556 -0.124691
v 0.027548 0.492170 -1.066515
v 0.027548 0.701556 -1.066515
v -0.027548 0.088357 -0.124691
v -0.027548 0.297744 -0.124691
v -0.027547 0.088357 -1.066515
v -0.027547 0.297744 -1.066515
v 0.027548 0.088357 -0.124691
v 0.027548 0.297744 -0.124691
v 0.027548 0.088357 -1.066515
v 0.027548 0.297744 -1.066515
vn 0.6221 0.7829 -0.0000
vn -1.0000 -0.0000 -0.0000
vn -0.0000 -0.0000 -1.0000
vn -0.0000 -1.0000 -0.0000
vn -0.0000 -0.0000 1.0000
vn 1.0000 -0.0000 -0.0000
vn -0.6221 0.7829 -0.0000
vn -0.0000 0.7829 -0.6221
vn -0.0000 0.7829 0.6221
vn -0.0000 1.0000 -0.0000
vt 0.625000 0.500000
vt 0.625000 0.250000
vt 0.375000 0.750000
vt 0.625000 0.750000
vt 0.625000 1.000000
vt 0.375000 1.000000
vt 0.375000 0.000000
vt 0.625000 0.000000
vt 0.375000 0.250000
vt 0.125000 0.500000
vt 0.375000 0.500000
vt 0.125000 0.750000
vt 0.875000 0.500000
vt 0.875000 0.750000
s 0
usemtl Material
f 1/1/1 5/2/1 9/1/1
f 4/3/2 3/4/2 7/5/2 8/6/2
f 8/7/3 7/8/3 5/2/3 6/9/3
f 6/10/4 2/11/4 4/3/4 8/12/4
f 2/11/5 1/1/5 3/4/5 4/3/5
f 6/9/6 5/2/6 1/1/6 2/11/6
f 7/5/7 3/4/7 9/5/7
f 5/2/8 7/8/8 9/2/8
f 3/4/9 1/1/9 9/4/9
f 10/7/2 11/8/2 13/2/2 12/9/2
f 12/9/3 13/2/3 17/1/3 16/11/3
f 16/11/6 17/1/6 15/4/6 14/3/6
f 14/3/5 15/4/5 11/5/5 10/6/5
f 12/10/4 16/11/4 14/3/4 10/12/4
f 17/1/10 13/13/10 11/14/10 15/4/10
f 18/7/2 19/8/2 21/2/2 20/9/2
f 20/9/3 21/2/3 25/1/3 24/11/3
f 24/11/6 25/1/6 23/4/6 22/3/6
f 22/3/5 23/4/5 19/5/5 18/6/5
f 20/10/4 24/11/4 22/3/4 18/12/4
f 25/1/10 21/13/10 19/14/10 23/4/10
f 26/7/2 27/8/2 29/2/2 28/9/2
f 28/9/3 29/2/3 33/1/3 32/11/3
f 32/11/6 33/1/6 31/4/6 30/3/6
f 30/3/5 31/4/5 27/5/5 26/6/5
f 28/10/4 32/11/4 30/3/4 26/12/4
f 33/1/10 29/13/10 27/14/10 31/4/10
