# Blender 4.1.1
# www.blender.org
mtllib shopStand.mtl
o Cube
v 0.000000 0.289847 -0.059374
v 0.571276 0.289847 0.085467
v 0.571276 0.289847 -0.059374
v 0.431556 0.289847 -0.059374
v 0.541276 -0.239105 0.055467
v 0.541276 0.239105 0.055467
v 0.541276 -0.239105 -0.059374
v 0.541276 0.239105 -0.059374
v 0.461556 -0.239105 -0.029374
v 0.461556 0.239105 -0.694019
v 0.461556 -0.239105 -0.694019
v 0.461556 0.239105 -0.029374
v 0.541276 0.239105 -0.694019
v 0.431556 -0.239105 0.055467
v 0.431556 0.239105 0.055467
v 0.541276 -0.239105 -0.694019
v 0.000000 -0.239105 -0.029374
v 0.000000 0.239105 -0.029374
v 0.000000 -0.239105 0.055467
v 0.000000 0.239105 0.055467
v 0.431556 0.289847 0.085467
v 0.431556 0.289847 -0.694019
v 0.571276 0.289847 -0.694019
v 0.000000 0.289847 0.085467
v 0.386556 0.289847 -0.744019
v 0.386556 0.289847 -0.104374
v 0.616276 0.289847 -0.059374
v 0.616276 0.289847 -0.744019
v 0.000000 0.289847 -0.104374
v 0.616276 0.289847 0.130467
v 0.000000 0.239105 -0.104374
v 0.616276 0.239105 -0.059374
v 0.616276 0.239105 0.130467
v 0.431556 0.289847 0.130467
v 0.386556 0.239105 -0.104374
v 0.431556 0.239105 0.130467
v 0.386556 0.239105 -0.744019
v 0.616276 0.239105 -0.744019
v 0.000000 0.239105 0.130467
v 0.000000 0.289847 0.130467
v -0.571276 0.289847 0.085467
v -0.571276 0.289847 -0.059374
v -0.431556 0.289847 -0.059374
v -0.541276 -0.239105 0.055467
v -0.541276 0.239105 0.055467
v -0.541276 -0.239105 -0.059374
v -0.541276 0.239105 -0.059374
v -0.461556 -0.239105 -0.029374
v -0.461556 0.239105 -0.694019
v -0.461556 -0.239105 -0.694019
v -0.461556 0.239105 -0.029374
v -0.541276 0.239105 -0.694019
v -0.431556 -0.239105 0.055467
v -0.431556 0.239105 0.055467
v -0.541276 -0.239105 -0.694019
v -0.431556 0.289847 0.085467
v -0.431556 0.289847 -0.694019
v -0.571276 0.289847 -0.694019
v -0.386556 0.289847 -0.744019
v -0.386556 0.289847 -0.104374
v -0.616276 0.289847 -0.059374
v -0.616276 0.289847 -0.744019
v -0.616276 0.289847 0.130467
v -0.616276 0.239105 -0.059374
v -0.616276 0.239105 0.130467
v -0.431556 0.289847 0.130467
v -0.386556 0.239105 -0.104374
v -0.431556 0.239105 0.130467
v -0.386556 0.239105 -0.744019
v -0.616276 0.239105 -0.744019
vn -0.0000 -1.0000 -0.0000
vn -0.0000 1.0000 -0.0000
vn 1.0000 -0.0000 -0.0000
vn -1.0000 -0.0000 -0.0000
vn -0.0000 -0.0000 1.0000
vn -0.0000 -0.0000 -1.0000
vt 0.625000 0.833333
vt 0.625000 0.750000
vt 0.750000 0.500000
vt 0.708333 0.500000
vt 0.375000 0.500000
vt 0.625000 0.500000
vt 0.375000 0.750000
vt 0.750000 0.750000
vt 0.708333 0.750000
vt 0.291667 0.500000
vt 0.291667 0.750000
vt 0.375000 0.416667
vt 0.625000 0.416667
vt 0.625000 0.875000
vt 0.250000 0.500000
vt 0.250000 0.750000
vt 0.375000 0.833333
vt 0.375000 0.375000
vt 0.625000 0.375000
vt 0.375000 0.875000
vt 0.000000 0.000000
s 0
usemtl Material.001
f 15/1/1 6/2/1 33/2/1 36/1/1
f 1/3/2 4/4/2 26/4/2 29/3/2
f 7/5/3 8/6/3 6/2/3 5/7/3
f 4/4/2 1/3/2 24/8/2 21/9/2
f 9/10/1 7/5/1 5/7/1 14/11/1
f 3/6/2 4/4/2 21/9/2 2/2/2
f 22/4/2 23/6/2 28/6/2 25/4/2
f 9/12/4 12/13/4 10/13/4 11/12/4
f 20/14/1 15/1/1 36/1/1 39/14/1
f 17/15/1 9/10/1 14/11/1 19/16/1
f 5/7/5 6/2/5 15/1/5 14/17/5
f 11/12/6 10/13/6 13/6/6 16/5/6
f 4/4/2 3/6/2 23/6/2 22/4/2
f 17/18/6 18/19/6 12/13/6 9/12/6
f 7/5/1 9/10/1 11/10/1 16/5/1
f 14/17/5 15/1/5 20/14/5 19/20/5
f 8/6/3 7/5/3 16/5/3 13/6/3
f 23/6/2 3/6/2 27/6/2 28/6/2
f 6/2/1 8/6/1 32/6/1 33/2/1
f 12/13/1 18/19/1 31/19/1 35/13/1
f 32/6/3 38/6/3 28/6/3 27/6/3
f 36/1/5 33/2/5 30/2/5 34/1/5
f 39/14/5 36/1/5 34/1/5 40/14/5
f 33/2/3 32/6/3 27/6/3 30/2/3
f 38/6/6 37/13/6 25/13/6 28/6/6
f 37/13/4 35/13/4 26/13/4 25/13/4
f 35/13/6 31/19/6 29/19/6 26/13/6
f 2/2/2 21/9/2 34/9/2 30/2/2
f 10/13/1 12/13/1 35/13/1 37/13/1
f 3/6/2 2/2/2 30/2/2 27/6/2
f 13/6/1 10/13/1 37/13/1 38/6/1
f 18/21/4 1/21/4 29/21/4 31/21/4
f 24/21/4 20/21/4 39/21/4 40/21/4
f 21/9/2 24/8/2 40/8/2 34/9/2
f 8/6/1 13/6/1 38/6/1 32/6/1
f 4/4/2 22/4/2 25/4/2 26/4/2
f 54/1/1 68/1/1 65/2/1 45/2/1
f 1/3/2 29/3/2 60/4/2 43/4/2
f 46/5/4 44/7/4 45/2/4 47/6/4
f 43/4/2 56/9/2 24/8/2 1/3/2
f 48/10/1 53/11/1 44/7/1 46/5/1
f 42/6/2 41/2/2 56/9/2 43/4/2
f 57/4/2 59/4/2 62/6/2 58/6/2
f 48/12/3 50/12/3 49/13/3 51/13/3
f 20/14/1 39/14/1 68/1/1 54/1/1
f 17/15/1 19/16/1 53/11/1 48/10/1
f 44/7/5 53/17/5 54/1/5 45/2/5
f 50/12/6 55/5/6 52/6/6 49/13/6
f 43/4/2 57/4/2 58/6/2 42/6/2
f 17/18/6 48/12/6 51/13/6 18/19/6
f 46/5/1 55/5/1 50/10/1 48/10/1
f 53/17/5 19/20/5 20/14/5 54/1/5
f 47/6/4 52/6/4 55/5/4 46/5/4
f 58/6/2 62/6/2 61/6/2 42/6/2
f 45/2/1 65/2/1 64/6/1 47/6/1
f 51/13/1 67/13/1 31/19/1 18/19/1
f 64/6/4 61/6/4 62/6/4 70/6/4
f 68/1/5 66/1/5 63/2/5 65/2/5
f 39/14/5 40/14/5 66/1/5 68/1/5
f 65/2/4 63/2/4 61/6/4 64/6/4
f 70/6/6 62/6/6 59/13/6 69/13/6
f 69/13/3 59/13/3 60/13/3 67/13/3
f 67/13/6 60/13/6 29/19/6 31/19/6
f 41/2/2 63/2/2 66/9/2 56/9/2
f 49/13/1 69/13/1 67/13/1 51/13/1
f 42/6/2 61/6/2 63/2/2 41/2/2
f 52/6/1 70/6/1 69/13/1 49/13/1
f 56/9/2 66/9/2 40/8/2 24/8/2
f 47/6/1 64/6/1 70/6/1 52/6/1
f 43/4/2 60/4/2 59/4/2 57/4/2
o Cube.001
v 0.489462 0.235023 -0.599249
v 0.489462 1.136502 -0.599249
v 0.489462 0.235023 -0.649012
v 0.489462 1.136502 -0.649012
v 0.539224 0.235023 -0.599249
v 0.539224 1.136502 -0.599249
v 0.539224 0.235023 -0.649012
v 0.539224 1.136502 -0.649012
v 0.489462 0.184464 0.042820
v 0.489462 1.060085 0.042820
v 0.489462 0.184464 -0.006943
v 0.489462 1.060085 -0.006943
v 0.539224 0.184464 0.042820
v 0.539224 1.060085 0.042820
v 0.539224 0.184464 -0.006943
v 0.539224 1.060085 -0.006943
v -0.489461 0.235023 -0.599249
v -0.489461 1.136502 -0.599249
v -0.489461 0.235023 -0.649012
v -0.489461 1.136502 -0.649012
v -0.539224 0.235023 -0.599249
v -0.539224 1.136502 -0.599249
v -0.539224 0.235023 -0.649012
v -0.539224 1.136502 -0.649012
v -0.489461 0.184464 0.042820
v -0.489461 1.060085 0.042820
v -0.489461 0.184464 -0.006943
v -0.489461 1.060085 -0.006943
v -0.539224 0.184464 0.042820
v -0.539224 1.060085 0.042820
v -0.539224 0.184464 -0.006943
v -0.539224 1.060085 -0.006943
vn -1.0000 -0.0000 -0.0000
vn -0.0000 -0.0000 -1.0000
vn 1.0000 -0.0000 -0.0000
vn -0.0000 -0.0000 1.0000
vn -0.0000 -1.0000 -0.0000
vn -0.0000 1.0000 -0.0000
vt 0.375000 0.000000
vt 0.625000 0.000000
vt 0.625000 0.250000
vt 0.375000 0.250000
vt 0.625000 0.500000
vt 0.375000 0.500000
vt 0.625000 0.750000
vt 0.375000 0.750000
vt 0.625000 1.000000
vt 0.375000 1.000000
vt 0.125000 0.500000
vt 0.125000 0.750000
vt 0.875000 0.500000
vt 0.875000 0.750000
s 0
usemtl Material.004
f 71/22/7 72/23/7 74/24/7 73/25/7
f 73/25/8 74/24/8 78/26/8 77/27/8
f 77/27/9 78/26/9 76/28/9 75/29/9
f 75/29/10 76/28/10 72/30/10 71/31/10
f 73/32/11 77/27/11 75/29/11 71/33/11
f 78/26/12 74/34/12 72/35/12 76/28/12
f 79/22/7 80/23/7 82/24/7 81/25/7
f 81/25/8 82/24/8 86/26/8 85/27/8
f 85/27/9 86/26/9 84/28/9 83/29/9
f 83/29/10 84/28/10 80/30/10 79/31/10
f 81/32/11 85/27/11 83/29/11 79/33/11
f 86/26/12 82/34/12 80/35/12 84/28/12
f 87/22/9 89/25/9 90/24/9 88/23/9
f 89/25/8 93/27/8 94/26/8 90/24/8
f 93/27/7 91/29/7 92/28/7 94/26/7
f 91/29/10 87/31/10 88/30/10 92/28/10
f 89/32/11 87/33/11 91/29/11 93/27/11
f 94/26/12 92/28/12 88/35/12 90/34/12
f 95/22/9 97/25/9 98/24/9 96/23/9
f 97/25/8 101/27/8 102/26/8 98/24/8
f 101/27/7 99/29/7 100/28/7 102/26/7
f 99/29/10 95/31/10 96/30/10 100/28/10
f 97/32/11 95/33/11 99/29/11 101/27/11
f 102/26/12 100/28/12 96/35/12 98/34/12
o Cube.003
v -0.655513 0.986179 0.175084
v -0.655513 1.050886 0.182844
v -0.655513 1.103656 -0.804591
v -0.655513 1.168363 -0.796831
v 0.655513 0.986179 0.175084
v 0.655513 1.050886 0.182844
v 0.655513 1.103656 -0.804591
v 0.655513 1.168363 -0.796831
v 0.468223 1.103656 -0.804591
v 0.280934 1.103656 -0.804591
v 0.093645 1.103656 -0.804591
v -0.093645 1.103656 -0.804591
v -0.280934 1.103656 -0.804591
v -0.468223 1.103656 -0.804591
v -0.468223 1.168363 -0.796831
v -0.280934 1.168363 -0.796831
v -0.093645 1.168363 -0.796831
v 0.093645 1.168363 -0.796831
v 0.280934 1.168363 -0.796831
v 0.468223 1.168363 -0.796831
v -0.468223 0.986179 0.175084
v -0.280934 0.986179 0.175084
v -0.093645 0.986179 0.175084
v 0.093645 0.986179 0.175084
v 0.280934 0.986179 0.175084
v 0.468223 0.986179 0.175084
v 0.468223 1.050886 0.182844
v 0.280934 1.050886 0.182844
v 0.093645 1.050886 0.182844
v -0.093645 1.050886 0.182844
v -0.280934 1.050886 0.182844
v -0.468223 1.050886 0.182844
vn -1.0000 -0.0000 -0.0000
vn -0.0000 0.1191 -0.9929
vn 1.0000 -0.0000 -0.0000
vn -0.0000 -0.1191 0.9929
vn -0.0000 -0.9929 -0.1191
vn -0.0000 0.9929 0.1191
vt 0.375000 0.000000
vt 0.625000 0.000000
vt 0.625000 0.250000
vt 0.375000 0.250000
vt 0.375000 0.464286
vt 0.625000 0.464286
vt 0.625000 0.500000
vt 0.375000 0.500000
vt 0.625000 0.750000
vt 0.375000 0.750000
vt 0.375000 0.964286
vt 0.625000 0.964286
vt 0.625000 1.000000
vt 0.375000 1.000000
vt 0.339286 0.500000
vt 0.339286 0.750000
vt 0.839286 0.500000
vt 0.875000 0.500000
vt 0.875000 0.750000
vt 0.839286 0.750000
vt 0.660714 0.500000
vt 0.660714 0.750000
vt 0.696429 0.500000
vt 0.696429 0.750000
vt 0.732143 0.500000
vt 0.732143 0.750000
vt 0.767857 0.500000
vt 0.767857 0.750000
vt 0.803571 0.500000
vt 0.803571 0.750000
vt 0.125000 0.500000
vt 0.160714 0.500000
vt 0.160714 0.750000
vt 0.125000 0.750000
vt 0.196429 0.500000
vt 0.196429 0.750000
vt 0.232143 0.500000
vt 0.232143 0.750000
vt 0.267857 0.500000
vt 0.267857 0.750000
vt 0.303571 0.500000
vt 0.303571 0.750000
vt 0.625000 0.785714
vt 0.375000 0.785714
vt 0.625000 0.821429
vt 0.375000 0.821429
vt 0.625000 0.857143
vt 0.375000 0.857143
vt 0.625000 0.892857
vt 0.375000 0.892857
vt 0.625000 0.928571
vt 0.375000 0.928571
vt 0.625000 0.285714
vt 0.375000 0.285714
vt 0.625000 0.321429
vt 0.375000 0.321429
vt 0.625000 0.357143
vt 0.375000 0.357143
vt 0.625000 0.392857
vt 0.375000 0.392857
vt 0.625000 0.428571
vt 0.375000 0.428571
s 0
usemtl Material.002
f 122/56/18 121/58/18 130/59/18 129/57/18
f 120/60/18 119/62/18 132/63/18 131/61/18
f 118/64/18 117/52/18 134/55/18 133/65/18
f 116/67/17 115/70/17 124/71/17 123/68/17
f 114/72/17 113/74/17 126/75/17 125/73/17
f 112/76/17 111/50/17 128/51/17 127/77/17
f 128/79/16 129/78/16 130/80/16 127/81/16
f 126/83/16 131/82/16 132/84/16 125/85/16
f 124/87/16 133/86/16 134/47/16 123/46/16
f 116/89/14 117/88/14 118/90/14 115/91/14
f 114/93/14 119/92/14 120/94/14 113/95/14
f 112/97/14 121/96/14 122/41/14 111/40/14
usemtl Material.003
f 103/36/13 104/37/13 106/38/13 105/39/13
f 111/40/14 122/41/14 110/42/14 109/43/14
f 109/43/15 110/42/15 108/44/15 107/45/15
f 123/46/16 134/47/16 104/48/16 103/49/16
f 111/50/17 109/43/17 107/45/17 128/51/17
f 117/52/18 106/53/18 104/54/18 134/55/18
f 110/42/18 122/56/18 129/57/18 108/44/18
f 121/58/18 120/60/18 131/61/18 130/59/18
f 119/62/18 118/64/18 133/65/18 132/63/18
f 105/66/17 116/67/17 123/68/17 103/69/17
f 115/70/17 114/72/17 125/73/17 124/71/17
f 113/74/17 112/76/17 127/77/17 126/75/17
f 107/45/16 108/44/16 129/78/16 128/79/16
f 127/81/16 130/80/16 131/82/16 126/83/16
f 125/85/16 132/84/16 133/86/16 124/87/16
f 105/39/14 106/38/14 117/88/14 116/89/14
f 115/91/14 118/90/14 119/92/14 114/93/14
f 113/95/14 120/94/14 121/96/14 112/97/14
