# Blender 4.0.2
# www.blender.org
mtllib potato.mtl
o Icosphere
v 0.057199 0.004662 0.176044
v -0.149752 0.004662 0.108800
v -0.149752 0.004662 -0.108800
v 0.057199 0.004662 -0.176044
v 0.185104 0.004661 0.000000
v 0.000000 0.138501 0.000000
v 0.173198 -0.030943 0.056274
v 0.173198 -0.030943 -0.056274
v 0.000000 -0.030943 0.182111
v 0.107042 -0.030943 0.147330
v -0.173198 -0.030943 0.056274
v -0.107042 -0.030943 0.147330
v -0.107042 -0.030943 -0.147330
v -0.173198 -0.030943 -0.056274
v 0.107042 -0.030943 -0.147330
v 0.000000 -0.030943 -0.182111
v 0.142423 0.023673 0.103476
v -0.054401 0.023673 0.167427
v -0.176044 0.023673 0.000000
v -0.054401 0.023673 -0.167427
v 0.142423 0.023673 -0.103476
v 0.033621 0.102341 0.103475
v 0.108801 0.102341 0.000000
v -0.088022 0.102341 0.063951
v -0.088022 0.102341 -0.063951
v 0.033621 0.102341 -0.103475
vn 0.4354 0.6022 0.6691
vn -0.5018 0.6022 0.6209
vn -0.7456 0.6022 -0.2854
vn 0.0410 0.6022 -0.7973
vn 0.7709 0.6022 -0.2073
vn 0.3074 0.9250 -0.2234
vn 0.5391 0.7456 -0.3917
vn 0.4354 0.6022 -0.6691
vn -0.1174 0.9250 -0.3614
vn -0.2059 0.7456 -0.6338
vn -0.5018 0.6022 -0.6209
vn -0.3800 0.9250 -0.0000
vn -0.6664 0.7456 -0.0000
vn -0.7456 0.6022 0.2854
vn -0.1174 0.9250 0.3614
vn -0.2059 0.7456 0.6338
vn 0.0410 0.6022 0.7973
vn 0.3074 0.9250 0.2234
vn 0.5391 0.7456 0.3917
vn 0.7709 0.6022 0.2073
vn 0.9146 0.2251 -0.3359
vn 0.8079 -0.0520 -0.5870
vn 0.6021 0.2251 -0.7660
vn -0.0368 0.2251 -0.9736
vn -0.3086 -0.0520 -0.9498
vn -0.5425 0.2251 -0.8093
vn -0.9374 0.2251 -0.2658
vn -0.9986 -0.0520 -0.0000
vn -0.9374 0.2251 0.2658
vn -0.5425 0.2251 0.8093
vn -0.3086 -0.0520 0.9498
vn -0.0368 0.2251 0.9736
vn 0.6021 0.2251 0.7660
vn 0.8079 -0.0520 0.5870
vn 0.9146 0.2251 0.3359
vn 0.2931 -0.3171 -0.9020
vn -0.0000 -1.0000 -0.0000
vn -0.7673 -0.3171 -0.5574
vn -0.7673 -0.3171 0.5574
vn 0.2931 -0.3171 0.9020
vn 0.9484 -0.3171 -0.0000
vt 0.181819 0.314921
vt 0.272728 0.314921
vt 0.227273 0.393651
vt 0.000000 0.314921
vt 0.090910 0.314921
vt 0.045455 0.393651
vt 0.727273 0.314921
vt 0.818182 0.314921
vt 0.772727 0.393651
vt 0.545455 0.314921
vt 0.636364 0.314921
vt 0.590909 0.393651
vt 0.363637 0.314921
vt 0.454546 0.314921
vt 0.409092 0.393651
vt 0.500000 0.393651
vt 0.454546 0.472382
vt 0.681818 0.393651
vt 0.636364 0.472382
vt 0.863636 0.393651
vt 0.818182 0.472382
vt 0.909091 0.314921
vt 0.136365 0.393651
vt 0.090910 0.472382
vt 0.318182 0.393651
vt 0.272728 0.472382
vt 0.409092 0.236191
vt 0.500000 0.236191
vt 0.590909 0.236191
vt 0.681818 0.236191
vt 0.772727 0.236191
vt 0.863636 0.236191
vt 0.045455 0.236191
vt 0.136365 0.236191
vt 0.227273 0.236191
vt 0.318182 0.236191
vt 0.954545 0.236191
s 0
usemtl Potato
f 1/1/1 17/2/1 22/3/1
f 2/4/2 18/5/2 24/6/2
f 3/7/3 19/8/3 25/9/3
f 4/10/4 20/11/4 26/12/4
f 5/13/5 21/14/5 23/15/5
f 23/15/6 26/16/6 6/17/6
f 23/15/7 21/14/7 26/16/7
f 21/14/8 4/10/8 26/16/8
f 26/12/9 25/18/9 6/19/9
f 26/12/10 20/11/10 25/18/10
f 20/11/11 3/7/11 25/18/11
f 25/9/12 24/20/12 6/21/12
f 25/9/13 19/8/13 24/20/13
f 19/8/14 2/22/14 24/20/14
f 24/6/15 22/23/15 6/24/15
f 24/6/16 18/5/16 22/23/16
f 18/5/17 1/1/17 22/23/17
f 22/3/18 23/25/18 6/26/18
f 22/3/19 17/2/19 23/25/19
f 17/2/20 5/13/20 23/25/20
f 8/27/21 21/14/21 5/13/21
f 8/27/22 15/28/22 21/14/22
f 15/28/23 4/10/23 21/14/23
f 16/29/24 20/11/24 4/10/24
f 16/29/25 13/30/25 20/11/25
f 13/30/26 3/7/26 20/11/26
f 14/31/27 19/8/27 3/7/27
f 14/31/28 11/32/28 19/8/28
f 11/32/29 2/22/29 19/8/29
f 12/33/30 18/5/30 2/4/30
f 12/33/31 9/34/31 18/5/31
f 9/34/32 1/1/32 18/5/32
f 10/35/33 17/2/33 1/1/33
f 10/35/34 7/36/34 17/2/34
f 7/36/35 5/13/35 17/2/35
f 15/28/36 16/29/36 4/10/36
f 8/27/37 7/36/37 10/35/37 9/34/37 12/33/37 11/32/37 14/31/37 13/30/37 16/29/37 15/28/37
f 13/30/38 14/31/38 3/7/38
f 11/32/39 12/37/39 2/22/39
f 9/34/40 10/35/40 1/1/40
f 7/36/41 8/27/41 5/13/41
o Plane.001
v 0.007990 0.294137 0.000043
v 0.007990 0.123976 0.000043
v -0.008566 0.294137 0.000043
v -0.008566 0.123976 0.000043
v -0.000288 0.294137 0.008321
v -0.000288 0.123976 0.008321
v -0.000288 0.294137 -0.008235
v -0.000288 0.123976 -0.008235
vn -0.0000 -0.0000 -1.0000
vn 1.0000 -0.0000 -0.0000
vt 0.000000 0.000000
vt 1.000000 0.000000
vt 1.000000 1.000000
vt 0.000000 1.000000
s 0
usemtl Stem
f 27/38/42 28/39/42 30/40/42 29/41/42
f 31/38/43 32/39/43 34/40/43 33/41/43
o Plane.002
v 0.019042 0.206923 0.029995
v 0.007563 0.175918 -0.000221
v 0.004221 0.214095 0.028265
v -0.007258 0.183090 -0.001950
v 0.008614 0.205731 0.035179
v -0.002865 0.174726 0.004964
v 0.014649 0.215287 0.023081
v 0.003170 0.184282 -0.007134
vn 0.3646 0.5772 -0.7307
vn 0.8952 -0.4332 0.1045
vt 0.000000 0.000000
vt 1.000000 0.000000
vt 1.000000 1.000000
vt 0.000000 1.000000
s 0
usemtl Stem
f 35/42/44 36/43/44 38/44/44 37/45/44
f 39/42/45 40/43/45 42/44/45 41/45/45
o Plane.003
v -0.003059 0.294048 -0.009408
v 0.008475 0.338075 0.005751
v 0.001949 0.313527 -0.011405
v -0.001912 0.296115 0.046778
v -0.005578 0.283874 0.000540
v -0.006134 0.280876 0.020519
v 0.017007 0.368329 0.071642
v 0.013341 0.356087 0.025404
v 0.017563 0.371326 0.051662
v 0.014489 0.358154 0.081590
v 0.002954 0.314127 0.066431
v 0.009481 0.338676 0.083587
v 0.002677 0.287155 -0.004510
v 0.032132 0.309645 0.025949
v 0.020356 0.291404 0.004312
v -0.025568 0.324545 0.026579
v -0.011314 0.290768 -0.004358
v -0.024542 0.302999 0.004803
v 0.022744 0.361435 0.076539
v 0.036998 0.327657 0.045602
v 0.035971 0.349204 0.067379
v 0.008752 0.365048 0.076692
v -0.020703 0.342557 0.046233
v -0.008927 0.360798 0.067870
vn 0.9682 -0.2500 -0.0106
vn -0.1743 -0.7041 0.6884
vt 0.000000 0.378759
vt 0.110936 0.110936
vt 0.378759 0.000000
vt 0.621241 0.000000
vt 0.889064 0.110936
vt 1.000000 0.378759
vt 1.000000 0.621241
vt 0.889064 0.889064
vt 0.621241 1.000000
vt 0.378759 1.000000
vt 0.110936 0.889064
vt 0.000000 0.621241
s 0
usemtl leaf
f 44/46/46 50/57/46 51/56/46 49/55/46 52/54/46 54/53/46 53/52/46 46/51/46 48/50/46 47/49/46 43/48/46 45/47/46
f 56/46/47 62/57/47 63/56/47 61/55/47 64/54/47 66/53/47 65/52/47 58/51/47 60/50/47 59/49/47 55/48/47 57/47/47
o Plane.004
v -0.027921 0.276652 -0.058691
v -0.007439 0.260054 -0.018614
v -0.018166 0.277984 -0.041042
v -0.031382 0.220574 -0.056294
v -0.033727 0.267078 -0.067828
v -0.036796 0.247264 -0.070361
v 0.002214 0.193350 0.009441
v -0.000131 0.239855 -0.002093
v 0.005283 0.213165 0.011974
v -0.003592 0.183777 0.000304
v -0.024075 0.200375 -0.039773
v -0.013348 0.182444 -0.017346
v -0.024501 0.271327 -0.066714
v 0.006668 0.238095 -0.051701
v -0.007189 0.260898 -0.066787
v -0.045488 0.242532 -0.023208
v -0.037147 0.272403 -0.059805
v -0.047773 0.264350 -0.044616
v 0.005634 0.188025 0.001418
v 0.013975 0.217896 -0.035180
v 0.016260 0.196078 -0.013771
v -0.007013 0.189101 0.008327
v -0.038181 0.222333 -0.006687
v -0.024324 0.199531 0.008400
vn 0.8751 -0.0744 -0.4781
vn -0.4018 -0.6625 -0.6323
vt 0.000000 0.378759
vt 0.110936 0.110936
vt 0.378759 0.000000
vt 0.621241 0.000000
vt 0.889064 0.110936
vt 1.000000 0.378759
vt 1.000000 0.621241
vt 0.889064 0.889064
vt 0.621241 1.000000
vt 0.378759 1.000000
vt 0.110936 0.889064
vt 0.000000 0.621241
s 0
usemtl leaf
f 68/58/48 74/69/48 75/68/48 73/67/48 76/66/48 78/65/48 77/64/48 70/63/48 72/62/48 71/61/48 67/60/48 69/59/48
f 80/58/49 86/69/49 87/68/49 85/67/49 88/66/49 90/65/49 89/64/49 82/63/49 84/62/49 83/61/49 79/60/49 81/59/49
o Plane.005
v -0.007853 0.264303 -0.005375
v 0.004794 0.277558 -0.036682
v -0.006332 0.265173 -0.020557
v 0.018708 0.296761 0.001638
v -0.004479 0.268959 0.003917
v 0.004495 0.280115 0.009262
v 0.039452 0.318502 -0.049711
v 0.016265 0.290700 -0.047432
v 0.030478 0.307347 -0.055056
v 0.042826 0.323159 -0.040419
v 0.030179 0.309903 -0.009112
v 0.041304 0.322289 -0.025238
v -0.001965 0.263145 -0.000508
v 0.029077 0.272784 -0.016609
v 0.012564 0.261458 -0.004937
v -0.005575 0.301535 -0.018435
v -0.010367 0.270117 -0.000950
v -0.014400 0.283830 -0.006358
v 0.045340 0.317345 -0.044844
v 0.040548 0.285926 -0.027359
v 0.049373 0.303632 -0.039436
v 0.036938 0.324316 -0.045286
v 0.005895 0.314678 -0.029185
v 0.022409 0.326004 -0.040857
vn 0.7690 -0.6380 0.0405
vn 0.3087 0.4261 0.8503
vt 0.000000 0.378759
vt 0.110936 0.110936
vt 0.378759 0.000000
vt 0.621241 0.000000
vt 0.889064 0.110936
vt 1.000000 0.378759
vt 1.000000 0.621241
vt 0.889064 0.889064
vt 0.621241 1.000000
vt 0.378759 1.000000
vt 0.110936 0.889064
vt 0.000000 0.621241
s 0
usemtl leaf
f 92/70/50 98/81/50 99/80/50 97/79/50 100/78/50 102/77/50 101/76/50 94/75/50 96/74/50 95/73/50 91/72/50 93/71/50
f 104/70/51 110/81/51 111/80/51 109/79/51 112/78/51 114/77/51 113/76/51 106/75/51 108/74/51 107/73/51 103/72/51 105/71/51
